<?xml version="1.0" encoding="UTF-8"?>
<!DOCTYPE svg PUBLIC "-//W3C//DTD SVG 1.1//EN" "http://www.w3.org/Graphics/SVG/1.1/DTD/svg11.dtd">
<svg xmlns="http://www.w3.org/2000/svg" version="1.1" width="512px" height="512px" style="shape-rendering:geometricPrecision; text-rendering:geometricPrecision; image-rendering:optimizeQuality; fill-rule:evenodd; clip-rule:evenodd" xmlns:xlink="http://www.w3.org/1999/xlink">
<g><path style="opacity:0.997" fill="#fed374" d="M 405.5,83.5 C 403.972,83.5173 403.472,84.184 404,85.5C 438.459,130.216 454.459,180.883 452,237.5C 443.764,327.541 399.264,392.375 318.5,432C 235.214,466.044 157.214,457.044 84.5,405C 85.8228,405.816 86.4894,406.983 86.5,408.5C 37.578,352.85 19.078,288.184 31,214.5C 47.2716,136.909 91.105,81.0758 162.5,47C 224.024,21.3898 285.691,21.0565 347.5,46C 368.893,55.6056 388.226,68.1056 405.5,83.5 Z"/></g>
<g><path style="opacity:1" fill="#ffe4aa" d="M 249.5,43.5 C 256.092,42.6404 261.592,44.6404 266,49.5C 267.73,56.7858 264.896,61.2858 257.5,63C 251.716,64.5086 246.883,63.0086 243,58.5C 240.227,51.3774 242.394,46.3774 249.5,43.5 Z"/></g>
<g><path style="opacity:1" fill="#ffe4ab" d="M 200.5,49.5 C 209.101,48.3587 217.101,49.8587 224.5,54C 228.41,58.0753 228.41,62.0753 224.5,66C 207.154,70.5596 190.487,76.8929 174.5,85C 162.886,92.9473 151.552,101.281 140.5,110C 132.906,113.742 128.906,111.408 128.5,103C 129.514,96.8066 132.014,91.3066 136,86.5C 153.747,67.5457 175.247,55.2124 200.5,49.5 Z"/></g>
<g><path style="opacity:0.996" fill="#ffb961" d="M 405.5,83.5 C 464.694,137.636 490.194,204.969 482,285.5C 467.246,378.886 415.413,441.386 326.5,473C 252.953,494.638 184.62,483.972 121.5,441C 108.734,431.403 97.0674,420.569 86.5,408.5C 86.4894,406.983 85.8228,405.816 84.5,405C 157.214,457.044 235.214,466.044 318.5,432C 399.264,392.375 443.764,327.541 452,237.5C 454.459,180.883 438.459,130.216 404,85.5C 403.472,84.184 403.972,83.5173 405.5,83.5 Z"/></g>
<g><path style="opacity:1" fill="#f3a250" d="M 351.5,118.5 C 352.261,123.377 353.261,128.21 354.5,133C 354.858,136.133 353.525,137.967 350.5,138.5C 316.349,111.087 277.349,100.254 233.5,106C 169.553,117.947 128.387,155.114 110,217.5C 107.854,226.044 106.687,234.711 106.5,243.5C 105.02,303.711 129.687,349.877 180.5,382C 220.863,403.907 262.863,407.573 306.5,393C 369.437,367.005 402.103,319.838 404.5,251.5C 405.188,240.113 403.854,229.113 400.5,218.5C 395.401,195.109 385.068,174.443 369.5,156.5C 370.251,155.427 371.251,155.26 372.5,156C 378.599,159.559 384.933,162.226 391.5,164C 385.333,159.833 379.167,155.667 373,151.5C 372.316,150.216 372.483,149.049 373.5,148C 375.743,146.864 378.076,146.03 380.5,145.5C 423.783,199.405 431.949,258.405 405,322.5C 369.644,389.61 313.811,421.11 237.5,417C 176.392,407.867 132.226,375.7 105,320.5C 79.4546,257.708 87.4546,199.708 129,146.5C 172.427,98.0237 226.26,79.857 290.5,92C 312.581,97.046 332.914,105.879 351.5,118.5 Z"/></g>
<g><path style="opacity:1" fill="#fef9f8" d="M 360.5,126.5 C 360.594,130.325 362.094,133.325 365,135.5C 366.301,135.361 367.134,134.695 367.5,133.5C 371.643,127.232 375.81,120.899 380,114.5C 377.863,121.114 374.863,127.447 371,133.5C 370.28,135.112 370.446,136.612 371.5,138C 385.236,135.984 398.903,133.318 412.5,130C 415.554,129.179 418.554,129.345 421.5,130.5C 407.891,135.702 394.224,140.702 380.5,145.5C 378.076,146.03 375.743,146.864 373.5,148C 372.483,149.049 372.316,150.216 373,151.5C 379.167,155.667 385.333,159.833 391.5,164C 384.933,162.226 378.599,159.559 372.5,156C 371.251,155.26 370.251,155.427 369.5,156.5C 368.305,156.866 367.639,157.699 367.5,159C 369.743,166.474 371.743,173.974 373.5,181.5C 374.932,188.634 376.265,195.801 377.5,203C 377.167,204.167 376.833,205.333 376.5,206.5C 369.964,191.42 363.964,176.087 358.5,160.5C 356.833,159.167 355.167,159.167 353.5,160.5C 349.53,166.969 345.363,173.302 341,179.5C 343.638,171.885 347.138,164.552 351.5,157.5C 351.023,156.522 350.357,155.689 349.5,155C 333.158,158.004 316.825,161.004 300.5,164C 313.781,158.521 327.114,153.354 340.5,148.5C 344.293,148.56 346.459,146.893 347,143.5C 341.776,139.277 336.276,135.444 330.5,132C 335.287,133.385 339.954,135.385 344.5,138C 346.473,138.495 348.473,138.662 350.5,138.5C 353.525,137.967 354.858,136.133 354.5,133C 353.261,128.21 352.261,123.377 351.5,118.5C 348.792,108.228 346.625,97.8945 345,87.5C 350.674,100.367 355.841,113.367 360.5,126.5 Z"/></g>
<g><path style="opacity:1" fill="#cd154b" d="M 350.5,138.5 C 348.473,138.662 346.473,138.495 344.5,138C 339.954,135.385 335.287,133.385 330.5,132C 336.276,135.444 341.776,139.277 347,143.5C 346.459,146.893 344.293,148.56 340.5,148.5C 296.667,121.454 250.334,116.287 201.5,133C 155.197,151.97 125.03,185.47 111,233.5C 109.154,240.065 107.82,246.731 107,253.5C 106.502,250.183 106.335,246.85 106.5,243.5C 106.687,234.711 107.854,226.044 110,217.5C 128.387,155.114 169.553,117.947 233.5,106C 277.349,100.254 316.349,111.087 350.5,138.5 Z"/></g>
<g><path style="opacity:1" fill="#f35170" d="M 340.5,148.5 C 327.114,153.354 313.781,158.521 300.5,164C 316.825,161.004 333.158,158.004 349.5,155C 350.357,155.689 351.023,156.522 351.5,157.5C 347.138,164.552 343.638,171.885 341,179.5C 345.363,173.302 349.53,166.969 353.5,160.5C 355.167,159.167 356.833,159.167 358.5,160.5C 363.964,176.087 369.964,191.42 376.5,206.5C 376.833,205.333 377.167,204.167 377.5,203C 376.265,195.801 374.932,188.634 373.5,181.5C 389.851,203.022 399.685,227.356 403,254.5C 403.667,248.167 403.667,241.833 403,235.5C 401.36,229.944 400.527,224.278 400.5,218.5C 403.854,229.113 405.188,240.113 404.5,251.5C 402.103,319.838 369.437,367.005 306.5,393C 262.863,407.573 220.863,403.907 180.5,382C 129.687,349.877 105.02,303.711 106.5,243.5C 106.335,246.85 106.502,250.183 107,253.5C 107.82,246.731 109.154,240.065 111,233.5C 125.03,185.47 155.197,151.97 201.5,133C 250.334,116.287 296.667,121.454 340.5,148.5 Z"/></g>
<g><path style="opacity:1" fill="#f4a85a" d="M 360.5,126.5 C 362.01,127.836 363.677,129.003 365.5,130C 366.823,130.816 367.489,131.983 367.5,133.5C 367.134,134.695 366.301,135.361 365,135.5C 362.094,133.325 360.594,130.325 360.5,126.5 Z"/></g>
<g><path style="opacity:1" fill="#cd174c" d="M 254.5,156.5 C 251.357,157.134 248.857,158.8 247,161.5C 238.215,178.905 229.048,196.072 219.5,213C 199.915,216.327 180.248,219.327 160.5,222C 155.436,224.629 153.436,228.796 154.5,234.5C 144.472,229.196 143.138,222.363 150.5,214C 170.815,210.607 191.148,207.274 211.5,204C 221.035,186.625 230.368,169.125 239.5,151.5C 246.424,145.487 252.091,146.487 256.5,154.5C 255.757,155.182 255.091,155.849 254.5,156.5 Z"/></g>
<g><path style="opacity:1" fill="#e9e5fa" d="M 254.5,156.5 C 257.862,156.07 260.695,157.07 263,159.5C 271.196,175.228 279.363,190.895 287.5,206.5C 288.927,209.764 291.261,212.264 294.5,214C 310.42,216.774 326.42,218.941 342.5,220.5C 355.074,220.908 358.907,226.908 354,238.5C 340.333,251.5 326.667,264.5 313,277.5C 312.219,278.729 311.719,280.062 311.5,281.5C 316.289,301.567 319.122,321.9 320,342.5C 317.103,347.155 312.937,348.655 307.5,347C 290.429,337.547 272.929,329.047 255,321.5C 237.555,329.305 220.389,337.805 203.5,347C 194.642,348.31 190.309,344.477 190.5,335.5C 192.84,317.791 195.507,300.124 198.5,282.5C 197.918,277.228 195.252,273.228 190.5,270.5C 178.167,258.833 166.167,246.833 154.5,234.5C 153.436,228.796 155.436,224.629 160.5,222C 180.248,219.327 199.915,216.327 219.5,213C 229.048,196.072 238.215,178.905 247,161.5C 248.857,158.8 251.357,157.134 254.5,156.5 Z"/></g>
<g><path style="opacity:1" fill="#cf1a4d" d="M 369.5,156.5 C 385.068,174.443 395.401,195.109 400.5,218.5C 400.527,224.278 401.36,229.944 403,235.5C 403.667,241.833 403.667,248.167 403,254.5C 399.685,227.356 389.851,203.022 373.5,181.5C 371.743,173.974 369.743,166.474 367.5,159C 367.639,157.699 368.305,156.866 369.5,156.5 Z"/></g>
<g><path style="opacity:1" fill="#f2f3fd" d="M 254.5,164.5 C 258.025,164.346 260.859,165.679 263,168.5C 270,182.5 277,196.5 284,210.5C 285.141,212.609 286.641,214.442 288.5,216C 306.176,219.001 323.842,222.001 341.5,225C 346.609,228.366 347.776,232.866 345,238.5C 320.096,261.309 290.596,272.642 256.5,272.5C 222.35,271.495 192.516,259.828 167,237.5C 164.494,232.38 165.661,228.214 170.5,225C 188.193,222.107 205.86,219.107 223.5,216C 224.667,214.833 225.833,213.667 227,212.5C 234.333,197.833 241.667,183.167 249,168.5C 250.5,166.531 252.333,165.198 254.5,164.5 Z"/></g>
<g><path style="opacity:1" fill="#fefefe" d="M 253.5,178.5 C 258.564,178.59 260.898,181.257 260.5,186.5C 259.357,197.778 254.691,207.278 246.5,215C 244.833,215.667 243.167,215.667 241.5,215C 238.747,200.756 242.747,188.589 253.5,178.5 Z"/></g>
<g><path style="opacity:1" fill="#ce1f50" d="M 287.5,206.5 C 305.197,208.337 322.864,210.504 340.5,213C 343.965,213.966 346.298,216.132 347.5,219.5C 345.955,220.452 344.288,220.785 342.5,220.5C 326.42,218.941 310.42,216.774 294.5,214C 291.261,212.264 288.927,209.764 287.5,206.5 Z"/></g>
<g><path style="opacity:1" fill="#cd164c" d="M 190.5,270.5 C 195.252,273.228 197.918,277.228 198.5,282.5C 195.507,300.124 192.84,317.791 190.5,335.5C 189.71,336.609 189.21,337.942 189,339.5C 183.865,337.4 181.365,333.567 181.5,328C 184.362,308.668 187.362,289.501 190.5,270.5 Z"/></g>
</svg>
